<svg xmlns="http://www.w3.org/2000/svg" viewBox="0 0 24 24" fill="currentColor">
  <path d="M23.78 4.678c-.837.37-1.737.62-2.678.733.962-.576 1.7-1.49 2.048-2.577-.9.534-1.897.923-2.958 1.133-.85-.904-2.06-1.47-3.4-1.47-2.573 0-4.658 2.085-4.658 4.658 0 .364.042.718.12 1.06-3.873-.195-7.304-2.05-9.605-4.868-.4.69-.63 1.49-.63 2.342 0 1.618.823 3.043 2.072 3.878-.764-.025-1.482-.234-2.11-.583v.06c0 2.258 1.605 4.13 3.738 4.558-.392.106-.803.162-1.227.162-.3 0-.593-.028-.877-.082.593 1.855 2.313 3.198 4.352 3.234-1.595 1.25-3.604 1.995-5.786 1.995-.376 0-.747-.022-1.112-.065 2.06 1.33 4.51 2.107 7.14 2.107 8.57 0 13.255-7.098 13.255-13.254 0-.2-.005-.402-.014-.602.91-.658 1.7-1.477 2.323-2.41z"/>
</svg>
